<svg width="911" height="1352" viewBox="0 0 911 1352" fill="none" xmlns="http://www.w3.org/2000/svg">
<path d="M392.08 623.859L375 675.079L566.77 675.939H567.2H572.02H572.52C573.28 675.939 574.05 675.939 574.81 675.939H575.1C760.56 674.599 910.5 523.809 910.5 337.999C910.5 160.569 773.79 15.0694 600 1.10938L572 84.8694L392.08 623.859Z"/>
<path d="M321.36 787.24L351.18 695.88L147.18 694.37L275 498.56L572 43.86L599.93 1.11C590.883 0.37 581.74 0 572.5 0H20.21C14.85 0 9.70948 2.12926 5.91937 5.91937C2.12926 9.70948 0 14.85 0 20.21L0 1331.79C0 1337.15 2.12926 1342.29 5.91937 1346.08C9.70948 1349.87 14.85 1352 20.21 1352H137L235.82 1049.28L321.36 787.24Z"/>
<path d="M579 676L572 686.631L265.17 1155.98L137 1352H572C758.67 1352 910 1200.65 910 1013.96C910 829.588 762.41 679.69 579 676Z"/>
</svg>
